HIERARCHY
ROOT pelvis
{
  OFFSET 0 100 0
  CHANNELS 6 Xposition Yposition Zposition Zrotation Xrotation Yrotation
  JOINT pelvis_right_femur
  {
    OFFSET -10.78128 -3.44521 -0.5502486
    CHANNELS 3 Zrotation Xrotation Yrotation
    JOINT right_femur_tibia
    {
      OFFSET -0.8047443 -44.0398 -0.1307829
      CHANNELS 3 Zrotation Xrotation Yrotation
      JOINT right_tibia_foot
      {
        OFFSET 3.006224 -47.83518 -5
        CHANNELS 3 Zrotation Xrotation Yrotation
        End Site
        {
          OFFSET 0 -5 15
        }
      }
    }
  }
  JOINT pelvis_left_femur
  {
    OFFSET 10.78128 -3.44521 -0.5502486
    CHANNELS 3 Zrotation Xrotation Yrotation
    JOINT left_femur_tibia
    {
      OFFSET 0.8047443 -44.0398 -0.1307829
      CHANNELS 3 Zrotation Xrotation Yrotation
      JOINT left_tibia_foot
      {
        OFFSET -4.370144 -48.10324 -4.275266
        CHANNELS 3 Zrotation Xrotation Yrotation
        End Site
        {
          OFFSET 0 -5 15
        }
      }
    }
  }
  JOINT pelvis_spine1
  {
    OFFSET 0 6.468898 -3.129235
    CHANNELS 3 Zrotation Xrotation Yrotation
    JOINT spine1
    {
      OFFSET 0 23.15396 4.99043
      CHANNELS 3 Zrotation Xrotation Yrotation
      JOINT spine2
      {
        OFFSET 0 20.79997 -5.064912
        CHANNELS 3 Zrotation Xrotation Yrotation
        JOINT neck
        {
          OFFSET 0 14.38658 9.616178
          CHANNELS 3 Zrotation Xrotation Yrotation
          End Site
          {
            OFFSET 0 20 0
          }
        }
      }
      JOINT right_manubrium
      {
        OFFSET -5.722621 16.35077 3.967754
        CHANNELS 3 Zrotation Xrotation Yrotation
        JOINT right_clavicle
        {
          OFFSET -13.16364 1.694482 -4.693211
          CHANNELS 3 Zrotation Xrotation Yrotation
          JOINT right_humerus
          {
            OFFSET -28.5034 -0.3100689 -2.792744
            CHANNELS 3 Zrotation Xrotation Yrotation
            JOINT right_radius
            {
              OFFSET -25.15693 0.02248979 -1.271978
              CHANNELS 3 Zrotation Xrotation Yrotation
              End Site
              {
                OFFSET -15 0 0
              }
            }
          }
        }
      }
      JOINT left_manubrium
      {
        OFFSET 5.722621 16.35077 3.967754
        CHANNELS 3 Zrotation Xrotation Yrotation
        JOINT left_clavicle
        {
          OFFSET 13.16364 1.694482 -4.693211
          CHANNELS 3 Zrotation Xrotation Yrotation
          JOINT left_humerus
          {
            OFFSET 29.39168 -1.063119 -2.237045
            CHANNELS 3 Zrotation Xrotation Yrotation
            JOINT left_radius
            {
              OFFSET 24.59957 -0.9528479 0.9047498
              CHANNELS 3 Zrotation Xrotation Yrotation
              End Site
              {
                OFFSET 15 -0 -0
              }
            }
          }
        }
      }
    }
  }
}
MOTION
Frames: 9
Frame Time: 0.0416666666667
0 103.5113 0 0.775667 -1.015442 0.1136375 3.306732 -15.08585 7.961415 -0 36.25477 -0 -6.440578 -15.13219 -2.551432 -7.06437 4.880808 -22.06526 -0 3.989194 -0 7.466159 -17.65117 26.12169 -1.218187 -2.74792 5.24094 2.592434 10.7198 -8.155857 0.4754964 20.5045 7.389479 4.362555 -26.40268 8.127141 5.954678 -20.86001 12.27167 87.03264 38.68073 -20.44765 -0 0 14.78663 -8.531015 9.710441 5.497502 5.964257 -22.81246 -2.146902 -94.85422 24.98446 26.46015 0 0 -19.91818 8.932799 17.4454 4.808649
0.4394618 103.4992 1.140723 0.7995927 -0.9423434 0.2294042 3.456959 -16.50305 8.410424 -0 37.95605 -0 -6.449123 -14.93665 -2.79504 -7.267154 6.444908 -22.72609 -0 5.237994 -0 7.701833 -17.87501 26.32837 -1.14397 -2.884459 5.319071 2.650818 10.79626 -8.208483 0.4499729 20.44879 7.350775 4.349347 -26.72476 8.128644 5.961882 -21.20539 12.3443 87.08201 38.80705 -20.5141 -0 0 15.04186 -8.035378 9.507014 5.361904 5.89357 -22.89525 -2.12956 -95.39009 25.10163 27.34959 0 0 -19.86109 8.976483 17.84337 4.896922
0.7872601 103.4872 2.634718 0.7101968 -0.9484115 0.4456651 3.565585 -20.05375 7.768421 -0 37.09711 -0 -6.328758 -12.82054 -3.194471 -7.066509 9.94685 -22.15596 -0 5.983602 -0 6.996243 -18.85538 25.18343 -1.294394 -2.574502 5.014858 2.565835 10.53535 -8.20306 0.5504188 20.60007 7.443555 4.311397 -26.0154 8.226084 5.910376 -20.20788 12.11251 87.38392 38.41154 -20.95783 -0 0 14.08684 -8.949712 10.00323 5.493316 6.072001 -22.7912 -2.176645 -93.96372 25.36177 24.85262 0 0 -20.69306 8.514528 16.9694 5.222694
1.076987 103.369 4.333866 0.5948771 -0.7870929 0.6863673 3.733607 -22.2481 7.2493 -0 34.87798 -0 -6.44621 -12.00743 -3.325474 -6.82721 11.73185 -21.69254 -0 5.805633 -0 6.668062 -19.45814 24.45834 -1.318172 -2.511162 4.888972 2.573003 10.44779 -8.258637 0.5875136 20.64157 7.466871 4.277998 -25.88019 8.287777 5.884364 -19.89958 12.03714 87.6446 38.28194 -21.33049 -0 0 13.69917 -9.04471 10.11609 5.436362 6.122877 -22.82298 -2.195575 -93.54478 25.61421 24.08213 0 0 -21.19093 8.303545 16.80103 5.462032
1.298662 102.9938 6.44321 0.4022679 -0.5977789 0.9539389 3.875602 -24.79244 6.210174 -0 30.53454 -0 -6.624536 -10.8758 -3.398811 -6.387459 13.58777 -20.61107 -0 5.055874 -0 5.992537 -20.20444 23.20684 -1.354689 -2.417035 4.69451 2.587012 10.32706 -8.346836 0.6386264 20.7025 7.503445 4.235534 -25.67816 8.372231 5.844124 -19.43421 11.9292 88.04571 38.08502 -21.89522 -0 0 13.0956 -9.195453 10.27628 5.349712 6.206555 -22.89124 -2.233303 -92.88175 25.92076 22.88185 0 0 -21.93645 8.061268 16.54741 5.718451
1.462187 102.361 9.017023 0.2198382 -0.5037291 1.25129 3.921206 -26.96569 5.098879 -0 26.25735 -0 -6.741538 -9.625916 -3.465012 -5.972233 15.18262 -19.37433 -0 4.546548 -0 5.150566 -20.81851 21.85262 -1.37099 -2.365151 4.535921 2.614967 10.23978 -8.440669 0.6765218 20.74311 7.528802 4.198064 -25.57391 8.445936 5.811781 -19.09513 11.85136 88.41926 37.94093 -22.42021 -0 0 12.60485 -9.214413 10.36961 5.237344 6.268457 -22.97959 -2.265175 -92.39671 26.2012 21.9944 0 0 -22.5931 7.881507 16.41292 5.932008
1.576741 101.4943 12.18506 0.05714526 -0.5938035 1.593005 3.823377 -28.85693 3.823544 -0 22.24531 -0 -6.715869 -7.905947 -3.581902 -5.590701 16.73055 -17.83144 -0 4.6424 -0 3.950231 -21.29253 20.21948 -1.387843 -2.311614 4.364829 2.646805 10.15147 -8.543635 0.7149668 20.78538 7.556109 4.160819 -25.46654 8.521619 5.776957 -18.73514 11.77115 88.82283 37.78532 -22.98393 -0 0 12.07376 -9.231864 10.4634 5.114728 6.336786 -23.08344 -2.302736 -91.86899 26.47092 21.03517 0 0 -23.29487 7.719114 16.27344 6.120825
1.654056 100.456 16.02951 -0.07442372 -0.8647567 1.982595 3.632926 -30.34812 2.515156 -0 18.75517 -0 -6.562935 -5.878293 -3.762428 -5.276106 18.13879 -16.09893 -0 5.61842 -0 2.476486 -21.53227 18.42564 -1.40547 -2.257658 4.202422 2.674779 10.06868 -8.638341 0.7510739 20.82652 7.582433 4.127031 -25.35651 8.59076 5.743427 -18.38958 11.69528 89.19766 37.63133 -23.50519 -0 0 11.56858 -9.265119 10.55544 5.005054 6.403227 -23.18062 -2.340032 -91.35513 26.70094 20.10519 0 0 -23.94971 7.576843 16.13115 6.27973
1.70527 99.33032 20.61987 -0.1727535 -1.326135 2.412479 3.415528 -31.35349 1.244823 -0 15.76449 -0 -6.298135 -3.633502 -4.02191 -5.024556 19.32349 -14.18467 -0 7.814813 -0 0.7466512 -21.43911 16.50451 -1.428631 -2.192573 4.042275 2.694103 9.98347 -8.721025 0.788212 20.87164 7.609799 4.094971 -25.21866 8.655354 5.708954 -18.03096 11.61684 89.54349 37.46459 -23.98353 -0 0 11.06922 -9.350015 10.66286 4.918119 6.471786 -23.26271 -2.377968 -90.81751 26.89317 19.13671 0 0 -24.56975 7.436122 15.95574 6.42326
